<?xml version="1.0" encoding="UTF-8"?>
<!DOCTYPE svg PUBLIC "-//W3C//DTD SVG 1.1//EN" "http://www.w3.org/Graphics/SVG/1.1/DTD/svg11.dtd">
<svg xmlns="http://www.w3.org/2000/svg" version="1.1" viewBox="0 0 128 128" width="128px" height="128px" style="shape-rendering:geometricPrecision; text-rendering:geometricPrecision; image-rendering:optimizeQuality; fill-rule:evenodd; clip-rule:evenodd" xmlns:xlink="http://www.w3.org/1999/xlink">
  <g>
    <path style="opacity:0.912" fill="currentColor" d="M 95.5,1.5 C 98.8499,1.33499 102.183,1.50166 105.5,2C 106.429,4.39135 107.929,6.22469 110,7.5C 112.12,6.54106 114.287,6.3744 116.5,7C 118,8.5 119.5,10 121,11.5C 121.687,13.9203 121.187,16.087 119.5,18C 121.257,20.0388 123.424,21.5388 126,22.5C 126.824,25.8823 126.657,29.2156 125.5,32.5C 124.205,33.0983 122.872,33.5983 121.5,34C 120.941,34.7247 120.608,35.5581 120.5,36.5C 122.598,41.4977 121.264,45.3311 116.5,48C 114.08,48.6869 111.913,48.1869 110,46.5C 107.545,47.7426 106.378,49.7426 106.5,52.5C 102.818,52.6653 99.1516,52.4986 95.5,52C 94.5871,49.6674 93.0871,47.8341 91,46.5C 89.087,48.1869 86.9203,48.6869 84.5,48C 79.6254,44.6288 78.1254,40.1288 80,34.5C 78.108,33.87 76.4413,32.87 75,31.5C 74.3333,28.5 74.3333,25.5 75,22.5C 77.576,21.5388 79.7426,20.0388 81.5,18C 79.8131,16.087 79.3131,13.9203 80,11.5C 81.5,10 83,8.5 84.5,7C 87.2004,6.74677 89.867,6.74677 92.5,7C 93.9711,5.41671 94.9711,3.58337 95.5,1.5 Z M 96.5,18.5 C 105.825,17.3271 109.992,21.3271 109,30.5C 104.449,37.4714 99.116,38.1381 93,32.5C 90.4323,26.9094 91.599,22.2427 96.5,18.5 Z"/>
  </g>
  <g>
    <path style="opacity:0.944" fill="currentColor" d="M 35.5,26.5 C 40.5111,26.3341 45.5111,26.5007 50.5,27C 51.5933,29.4433 52.5933,31.9433 53.5,34.5C 55.3864,35.4063 57.2197,36.4063 59,37.5C 61.4206,36.0394 63.9206,34.7061 66.5,33.5C 70.1514,36.6508 73.6514,39.9842 77,43.5C 75.4678,46.9395 74.8011,50.6061 75,54.5C 75.2492,55.624 75.7492,56.624 76.5,57.5C 79.0567,58.4067 81.5567,59.4067 84,60.5C 84.4994,65.8229 84.666,71.1563 84.5,76.5C 74.7325,77.7078 72.2325,82.3744 77,90.5C 77.6667,91.5 77.6667,92.5 77,93.5C 74.1667,96.3333 71.3333,99.1667 68.5,102C 64.9297,102.804 61.7631,101.97 59,99.5C 57.2197,100.594 55.3864,101.594 53.5,102.5C 52.5933,105.057 51.5933,107.557 50.5,110C 45.5,110.667 40.5,110.667 35.5,110C 34.4527,107.021 33.1194,104.188 31.5,101.5C 29.9411,100.926 28.4411,100.26 27,99.5C 24.2369,101.97 21.0703,102.804 17.5,102C 14.6667,99.1667 11.8333,96.3333 9,93.5C 9.19385,90.41 10.0272,87.41 11.5,84.5C 11.1132,82.7257 10.4465,81.059 9.5,79.5C 6.2171,78.4746 3.38376,76.808 1,74.5C 0.333333,70.1667 0.333333,65.8333 1,61.5C 3.13448,59.5156 5.63448,58.1823 8.5,57.5C 9.58359,56.3349 10.4169,55.0016 11,53.5C 10.0432,49.9069 9.37654,46.2403 9,42.5C 11.8333,39.6667 14.6667,36.8333 17.5,34C 20.9509,34.1312 24.1176,35.2979 27,37.5C 28.1711,36.1068 29.6711,35.2735 31.5,35C 32.9325,32.1971 34.2658,29.3637 35.5,26.5 Z M 38.5,52.5 C 54.1669,52.6577 60.3335,60.3244 57,75.5C 48.075,86.9867 38.7417,87.3201 29,76.5C 24.6901,65.4627 27.8567,57.4627 38.5,52.5 Z"/>
  </g>
  <g>
    <path style="opacity:0.905" fill="currentColor" d="M 86.5,58.5 C 90.8839,58.1744 95.2172,58.5078 99.5,59.5C 99.9176,63.0258 101.751,65.3591 105,66.5C 107.651,64.836 110.484,64.336 113.5,65C 116.219,67.3822 118.553,70.0488 120.5,73C 119.764,75.1394 118.764,77.1394 117.5,79C 118.191,80.0674 118.691,81.2341 119,82.5C 121.333,83.5 123.667,84.5 126,85.5C 126.828,89.8713 126.661,94.2047 125.5,98.5C 121.69,98.889 119.357,100.889 118.5,104.5C 119.942,107.028 120.442,109.695 120,112.5C 117.833,114.667 115.667,116.833 113.5,119C 109.889,118.373 106.223,118.04 102.5,118C 101.35,120.462 100.017,122.796 98.5,125C 94.5,125.667 90.5,125.667 86.5,125C 85.6537,121.134 83.4871,118.301 80,116.5C 77.7686,118.377 75.2686,119.21 72.5,119C 69.6503,116.318 66.9836,113.484 64.5,110.5C 65.1667,109.167 65.8333,107.833 66.5,106.5C 71.6848,102.149 76.3514,97.3156 80.5,92C 79.4381,89.2095 78.1048,86.5428 76.5,84C 78.7719,81.1028 81.7719,79.1028 85.5,78C 87.7996,71.6596 88.133,65.1596 86.5,58.5 Z M 90.5,79.5 C 97.7011,78.3498 102.868,81.0165 106,87.5C 107.961,97.0455 104.127,102.712 94.5,104.5C 84.8728,102.712 81.0395,97.0455 83,87.5C 84.6904,83.9791 87.1904,81.3124 90.5,79.5 Z"/>
  </g>
</svg>
